<?xml version="1.0" standalone="no"?>
<!DOCTYPE svg PUBLIC "-//W3C//DTD SVG 20010904//EN"
 "http://www.w3.org/TR/2001/REC-SVG-20010904/DTD/svg10.dtd">
<svg version="1.0" xmlns="http://www.w3.org/2000/svg"
 width="700.000000pt" height="700.000000pt" viewBox="0 0 700.000000 700.000000"
 preserveAspectRatio="xMidYMid meet">
<metadata>
Created by potrace 1.11, written by Peter Selinger 2001-2013
</metadata>
<g transform="translate(0.000000,700.000000) scale(0.100000,-0.100000)"
fill="#000000" stroke="none">
<path d="M4290 6544 c-46 -20 -87 -60 -112 -109 -20 -37 -21 -59 -22 -289 -1
-176 2 -263 12 -300 39 -153 235 -206 360 -97 12 11 32 41 44 68 20 45 21 64
21 313 0 293 -3 308 -65 367 -63 61 -161 80 -238 47z"/>
<path d="M2607 5841 c-121 -43 -182 -179 -129 -294 22 -47 362 -390 410 -413
107 -51 240 -5 290 98 32 67 25 160 -15 218 -48 68 -359 369 -399 386 -52 22
-105 24 -157 5z"/>
<path d="M5992 5840 c-43 -19 -365 -331 -411 -398 -29 -41 -39 -137 -21 -184
38 -96 121 -150 222 -143 36 2 71 11 91 24 50 31 379 365 402 408 25 47 26
144 2 188 -57 107 -180 153 -285 105z"/>
<path d="M4238 5244 c-2 -1 -25 -5 -53 -9 -180 -23 -386 -104 -551 -215 -182
-123 -325 -288 -431 -499 -35 -68 -63 -129 -63 -135 0 -8 19 -13 53 -15 28 -1
70 -4 92 -6 119 -13 142 -16 165 -20 14 -3 39 -7 55 -10 17 -3 42 -8 56 -11
23 -4 29 0 49 38 81 157 254 311 433 384 113 46 202 62 337 62 421 -1 775
-296 855 -713 46 -240 -32 -544 -183 -707 l-24 -27 21 -29 c11 -17 21 -32 21
-35 0 -3 17 -32 39 -64 21 -32 62 -104 91 -160 29 -57 55 -103 58 -103 9 0 96
93 153 165 137 174 229 389 265 625 9 64 12 267 3 315 -4 22 -10 60 -13 85 -8
64 -32 153 -63 235 -137 368 -440 661 -811 785 -93 31 -105 34 -227 54 -65 11
-318 19 -327 10z"/>
<path d="M6275 4143 c-157 -54 -199 -251 -78 -365 55 -52 93 -58 365 -58 288
0 312 4 375 68 23 24 42 47 41 51 -1 3 4 19 10 34 16 39 15 86 -3 138 -18 51
-44 81 -100 117 l-40 26 -266 1 c-198 1 -275 -2 -304 -12z"/>
<path d="M2875 3930 c-143 -17 -176 -23 -285 -50 -355 -89 -674 -270 -927
-528 -183 -185 -338 -421 -424 -642 -18 -47 -33 -86 -33 -86 -1 -1 -23 -5 -51
-8 -291 -39 -541 -158 -750 -357 -203 -195 -340 -453 -389 -734 -20 -115 -16
-357 9 -470 108 -510 499 -911 995 -1021 141 -32 157 -32 2135 -33 2159 0
2053 -3 2231 60 110 39 169 68 259 129 363 246 534 662 459 1120 -10 64 -64
212 -106 293 -141 271 -421 490 -706 552 -12 3 -30 7 -39 9 -38 8 -101 16
-162 21 -36 3 -66 7 -68 9 -5 4 -9 28 -17 90 -31 229 -153 547 -288 751 -93
140 -127 183 -248 308 -227 237 -483 392 -850 517 -27 9 -147 37 -195 45 -16
3 -59 10 -95 16 -77 13 -369 19 -455 9z"/>
<path d="M5728 2759 c-26 -4 -65 -20 -88 -36 -45 -32 -90 -110 -90 -158 0 -27
5 -33 38 -44 88 -32 329 -165 362 -201 3 -3 32 -27 65 -55 33 -27 92 -83 131
-123 l71 -74 21 22 c53 57 70 158 38 233 -16 41 -321 357 -386 402 -45 31
-103 43 -162 34z"/>
</g>
</svg>
